<svg width="28" height="15" viewBox="0 0 28 15" fill="none" xmlns="http://www.w3.org/2000/svg">
<path d="M0.764541 11.6231L28 9.85742L0 14.0276L0.764541 11.6231Z" fill="#FF42A8"/>
<path d="M0.769531 8.66538L2.20812 0H8.12325L7.83554 1.70092H4.01482L3.7271 3.478H7.17125L6.88353 5.18315H3.43938L2.86395 8.66538H0.769531Z" fill="#FF42A8"/>
<path d="M14.4203 0H16.5104L15.5838 5.58934C15.4766 6.23529 15.2298 6.79803 14.8434 7.27756C14.4597 7.75427 13.9703 8.12379 13.3752 8.38612C12.78 8.64563 12.1171 8.77539 11.3865 8.77539C10.6531 8.77539 10.034 8.64563 9.52905 8.38612C9.02414 8.12379 8.65885 7.75427 8.43319 7.27756C8.20752 6.79803 8.14688 6.23529 8.25125 5.58934L9.17787 0H11.2723L10.371 5.4074C10.3231 5.7064 10.3457 5.97296 10.4387 6.20708C10.5347 6.43839 10.6898 6.62174 10.9042 6.75713C11.1186 6.88971 11.3809 6.956 11.6912 6.956C12.0043 6.956 12.2906 6.88971 12.5501 6.75713C12.8096 6.62174 13.024 6.43839 13.1932 6.20708C13.3625 5.97296 13.4711 5.7064 13.519 5.4074L14.4203 0Z" fill="#FF42A8"/>
<path d="M25.198 0L23.7594 8.66538H21.9824L19.3717 3.66417H19.3125L18.479 8.66538H16.3846L17.8231 0H19.6256L22.2151 4.99275H22.287L23.1078 0H25.198Z" fill="#FF42A8"/>
</svg>
